<svg xmlns="http://www.w3.org/2000/svg" viewBox="0 0 1920 1080">
  <title>Game-Radar Background</title>
  <style>
    .game-radar-background-raster {
      fill: #0c0;
    }

    .game-radar-background-logo {
      fill: #090;
    }
  </style>
  <path class="game-radar-background-raster"
        d="M418.29743,169.12584h-1.22881v-29h1.22881Zm-15.1144-15.1144v1.22881h29v-1.22881Zm286.1144-13.8856h-1.22881v29h1.22881Zm-15.1144,13.8856v1.22881h29v-1.22881Zm286.1144-13.8856h-1.22881v29h1.22881Zm-15.1144,13.8856v1.22881h29v-1.22881Zm286.1144-13.8856h-1.22881v29h1.22881Zm-15.1144,13.8856v1.22881h29v-1.22881Zm286.1144-13.8856h-1.22881v29h1.22881Zm-15.1144,13.8856v1.22881h29v-1.22881Zm286.1144-13.8856h-1.22881v29h1.22881Zm-15.1144,13.8856v1.22881h29v-1.22881ZM146.683,397.042h-1.22882v29H146.683Zm-15.11441,13.88559v1.22882h29v-1.22882ZM417.683,397.042h-1.22882v29H417.683Zm-15.11441,13.88559v1.22882h29v-1.22882ZM1501.683,397.042h-1.22882v29h1.22882Zm-15.11441,13.88559v1.22882h29v-1.22882ZM1772.683,397.042h-1.22882v29h1.22882Zm-15.11441,13.88559v1.22882h29v-1.22882ZM147.29743,140.12584h-1.22881v29h1.22881Zm-15.1144,13.8856v1.22881h29v-1.22881Zm284.866,499.94661h-1.22881v29h1.22881Zm-15.1144,13.88559v1.22882h29v-1.22882Zm1099.1144-13.88559h-1.22881v29h1.22881Zm-15.1144,13.88559v1.22882h29v-1.22882Zm286.1144-13.88559h-1.22881v29h1.22881Zm-15.1144,13.88559v1.22882h29v-1.22882Zm-1611.5,243.03052h-1.22882v29h1.22882Zm-15.11441,13.88559v1.22881h29v-1.22881Zm286.11441-13.88559h-1.22882v29h1.22882Zm-15.11441,13.88559v1.22881h29v-1.22881Zm286.11441-13.88559h-1.22882v29h1.22882Zm-15.11441,13.88559v1.22881h29v-1.22881Zm286.11441-13.88559h-1.22882v29h1.22882Zm-15.11441,13.88559v1.22881h29v-1.22881Zm286.11441-13.88559h-1.22882v29h1.22882Zm-15.11441,13.88559v1.22881h29v-1.22881Zm286.11441-13.88559h-1.22882v29h1.22882Zm-15.11441,13.88559v1.22881h29v-1.22881Zm286.11441-13.88559h-1.22882v29h1.22882Zm-15.11441,13.88559v1.22881h29v-1.22881ZM146.04908,653.95805h-1.22881v29h1.22881Zm-15.1144,13.88559v1.22882h29v-1.22882Z"/>
  <polygon class="game-radar-background-logo"
           points="1133.8 234.564 975.8 423.314 975.8 788.469 1102.2 749.825 1102.2 497.025 1323.4 429.397 1355 166.936 1133.8 234.564"/>
  <polygon class="game-radar-background-logo"
           points="1014.422 271.061 975.8 282.869 975.8 326.319 1014.422 271.061"/>
  <polygon class="game-radar-background-logo"
           points="1133.8 518.964 1260.2 480.32 1355 672.536 1228.6 711.181 1133.8 518.964"/>
  <polygon class="game-radar-background-logo"
           points="817.8 612.064 817.8 710.375 707.2 744.189 565 914.064 944.2 798.131 944.2 545.331 849.4 574.314 817.8 612.064"/>
  <polygon class="game-radar-background-logo"
           points="691.4 496.219 902.067 431.812 944.2 371.531 944.2 292.531 565 408.464 565 914.064 691.4 733.219 691.4 496.219"/>
</svg>
